<?xml version="1.0" encoding="utf-8"?>
<!-- Generator: Adobe Illustrator 22.0.0, SVG Export Plug-In . SVG Version: 6.00 Build 0)  -->
<svg version="1.1" id="图层_1" xmlns="http://www.w3.org/2000/svg" xmlns:xlink="http://www.w3.org/1999/xlink" x="0px" y="0px"
	 viewBox="0 0 200 200" style="enable-background:new 0 0 200 200;" xml:space="preserve">
<g>
	<path d="M151.9,32.4H49.1L8.5,0.9v106.7c0,24.5,9.6,47.5,27,64.9c17.4,17.4,40.5,27,65,27c24.5,0,47.6-9.6,65-27
		c17.4-17.4,27-40.5,27-64.9V0.9L151.9,32.4z M19,22.3l26.6,20.6h109.9L182,22.3v85.3c0,22.3-8.9,43.1-25,58.6
		c-16.1,15.5-37.2,23.6-59.6,22.8C54.2,187.5,19,150.6,19,106.9V22.3z"/>
	<path d="M57.8,156.7h84.3c8,0,14.6-6.5,14.6-14.6V85.4c0-8-6.5-14.5-14.6-14.5h-11.8v-5.2c0-8-6.5-14.6-14.6-14.6H85.8
		c-8,0-14.6,6.5-14.6,14.6v5.2H57.8c-8,0-14.6,6.5-14.6,14.6v56.7C43.2,150.2,49.7,156.7,57.8,156.7z M81.7,70.9v-5.1
		c0-2.2,1.8-4.1,4.1-4.1h29.8c2.3,0,4.1,1.8,4.1,4.1v5.1H81.7z M128.7,98.1h-10.3c-3.7,0-6.6,3-6.6,6.6v0.9H88.4v-0.9
		c0-3.7-3-6.6-6.6-6.6H71.5c-3.7,0-6.6,3-6.6,6.6v0.9H53.7V85.1c0-2.3,1.8-4.1,4.1-4.1H142c2.3,0,4.1,1.8,4.1,4.1v20.5h-10.8v-0.9
		C135.3,101.1,132.3,98.1,128.7,98.1z M71.5,128.7h10.2c3.7,0,6.6-3,6.6-6.6v-6h23.4v6c0,3.7,3,6.6,6.6,6.6h10.3
		c3.7,0,6.6-3,6.6-6.6v-6h10.8l0,26.1c0,2.2-1.8,4-4.1,4H57.8c-2.3,0-4.1-1.8-4.1-4.1v-26h11.2v6C64.9,125.8,67.9,128.7,71.5,128.7z
		 M121.1,119v-11.6h4.5V119H121.1z M78.7,107.4V119h-4.5v-11.6H78.7z"/>
</g>
</svg>
