<?xml version="1.0" standalone="no"?><!DOCTYPE svg PUBLIC "-//W3C//DTD SVG 1.1//EN" "http://www.w3.org/Graphics/SVG/1.1/DTD/svg11.dtd"><svg t="1626944347007" class="icon" viewBox="0 0 1024 1024" version="1.1" xmlns="http://www.w3.org/2000/svg" p-id="1972" xmlns:xlink="http://www.w3.org/1999/xlink" width="200" height="200"><defs><style type="text/css">@font-face { font-family: feedback-iconfont; src: url("//at.alicdn.com/t/font_1031158_1uhr8ri0pk5.eot?#iefix") format("embedded-opentype"), url("//at.alicdn.com/t/font_1031158_1uhr8ri0pk5.woff2") format("woff2"), url("//at.alicdn.com/t/font_1031158_1uhr8ri0pk5.woff") format("woff"), url("//at.alicdn.com/t/font_1031158_1uhr8ri0pk5.ttf") format("truetype"), url("//at.alicdn.com/t/font_1031158_1uhr8ri0pk5.svg#iconfont") format("svg"); }
</style></defs><path d="M777.728 165.888H251.392L43.52 4.608v546.304c0 125.44 49.152 243.2 138.24 332.288s207.36 138.24 332.8 138.24 243.712-49.152 332.8-138.24 138.24-207.36 138.24-332.288V4.608l-207.872 161.28zM97.28 114.176l136.192 105.472h562.688L931.84 114.176v436.736c0 114.176-45.568 220.672-128 300.032s-190.464 120.832-305.152 116.736C277.504 960 97.28 771.072 97.28 547.328V114.176z" fill="#000000" p-id="1973"></path><path d="M295.936 802.304h431.616c40.96 0 74.752-33.28 74.752-74.752V437.248c0-40.96-33.28-74.24-74.752-74.24h-60.416v-26.624c0-40.96-33.28-74.752-74.752-74.752H439.296c-40.96 0-74.752 33.28-74.752 74.752v26.624H295.936c-40.96 0-74.752 33.28-74.752 74.752v290.304c0 40.96 33.28 74.24 74.752 74.24z m122.368-439.296v-26.112c0-11.264 9.216-20.992 20.992-20.992h152.576c11.776 0 20.992 9.216 20.992 20.992v26.112h-194.56z m240.64 139.264h-52.736c-18.944 0-33.792 15.36-33.792 33.792v4.608H452.608v-4.608c0-18.944-15.36-33.792-33.792-33.792H366.08c-18.944 0-33.792 15.36-33.792 33.792v4.608H274.944V435.712c0-11.776 9.216-20.992 20.992-20.992H727.04c11.776 0 20.992 9.216 20.992 20.992v104.96h-55.296v-4.608c0-18.432-15.36-33.792-33.792-33.792z m-292.864 156.672h52.224c18.944 0 33.792-15.36 33.792-33.792v-30.72h119.808v30.72c0 18.944 15.36 33.792 33.792 33.792h52.736c18.944 0 33.792-15.36 33.792-33.792v-30.72H747.52v133.632c0 11.264-9.216 20.48-20.992 20.48H295.936c-11.776 0-20.992-9.216-20.992-20.992v-133.12h57.344v30.72c0 18.944 15.36 33.792 33.792 33.792z m253.952-49.664v-59.392h23.04V609.28h-23.04z m-217.088-59.392V609.28h-23.04v-59.392h23.04z" fill="#000000" p-id="1974"></path></svg>